<svg xmlns="http://www.w3.org/2000/svg" xmlns:xlink="http://www.w3.org/1999/xlink" xmlns:sketch="http://www.bohemiancoding.com/sketch/ns" viewBox="0 0 54 67.5" version="1.1" x="0px" y="0px"><title>arrows-106</title><desc>Created with Sketch.</desc><g stroke="none" stroke-width="1" fill="none" fill-rule="evenodd" sketch:type="MSPage"><g sketch:type="MSLayerGroup" fill="#0B132B"><path d="M27,54 C12.112,54 0,41.888 0,27 C0,12.112 12.112,0 27,0 C41.888,0 54,12.112 54,27 C54,41.888 41.888,54 27,54 L27,54 Z M27,2 C13.215,2 2,13.215 2,27 C2,40.785 13.215,52 27,52 C40.785,52 52,40.785 52,27 C52,13.215 40.785,2 27,2 L27,2 Z" sketch:type="MSShapeGroup"/><path d="M27,41 C24.794,41 23,39.206 23,37 L23,36.657 L22.757,36.899 C21.251,38.406 18.606,38.406 17.101,36.899 C15.541,35.34 15.541,32.803 17.101,31.242 L17.343,31 L17,31 C14.794,31 13,29.206 13,27 C13,24.794 14.794,23 17,23 L17.344,23 L17.101,22.757 C16.348,22.004 15.933,21 15.933,19.929 C15.933,18.858 16.348,17.854 17.101,17.101 C17.854,16.347 18.858,15.932 19.929,15.932 C21,15.932 22.004,16.347 22.757,17.101 L23,17.343 L23,17 C23,14.794 24.794,13 27,13 C29.206,13 31,14.794 31,17 L31,17.343 L31.242,17.101 C31.995,16.347 33,15.932 34.07,15.932 C35.142,15.932 36.146,16.347 36.899,17.101 C37.652,17.854 38.067,18.858 38.067,19.929 C38.067,20.999 37.652,22.004 36.899,22.757 L36.656,23 L37,23 C39.206,23 41,24.794 41,27 C41,29.206 39.206,31 37,31 L36.657,31 L36.899,31.242 C37.652,31.995 38.067,33 38.067,34.071 C38.067,35.142 37.652,36.146 36.899,36.899 C36.146,37.653 35.142,38.068 34.07,38.068 C33,38.068 31.995,37.653 31.242,36.899 L31,36.657 L31,37 C31,39.206 29.206,41 27,41 L27,41 Z M24,33.242 C24.129,33.242 24.259,33.267 24.383,33.318 C24.757,33.473 25,33.838 25,34.242 L25,37 C25,38.103 25.897,39 27,39 C28.102,39 29,38.103 29,37 L29,34.242 C29,33.838 29.244,33.473 29.617,33.318 C29.992,33.164 30.422,33.249 30.707,33.535 L32.656,35.485 C33.409,36.237 34.734,36.236 35.485,35.485 C35.86,35.11 36.067,34.607 36.067,34.071 C36.067,33.534 35.86,33.032 35.485,32.656 L33.536,30.707 C33.25,30.421 33.164,29.991 33.319,29.617 C33.474,29.244 33.839,29 34.243,29 L37,29 C38.102,29 39,28.103 39,27 C39,25.897 38.102,25 37,25 L34.243,25 C33.839,25 33.475,24.756 33.319,24.383 C33.164,24.009 33.25,23.579 33.536,23.293 L35.485,21.343 C35.86,20.967 36.067,20.465 36.067,19.929 C36.067,19.392 35.86,18.89 35.485,18.515 C34.734,17.764 33.409,17.763 32.656,18.515 L30.707,20.465 C30.421,20.751 29.991,20.836 29.617,20.682 C29.244,20.527 29,20.162 29,19.758 L29,17 C29,15.897 28.102,15 27,15 C25.897,15 25,15.897 25,17 L25,19.758 C25,20.162 24.757,20.527 24.383,20.682 C24.009,20.837 23.58,20.751 23.293,20.465 L21.343,18.515 C20.593,17.764 19.267,17.763 18.515,18.515 C18.14,18.89 17.933,19.393 17.933,19.929 C17.933,20.465 18.139,20.967 18.515,21.342 L20.464,23.293 C20.75,23.579 20.836,24.009 20.681,24.383 C20.525,24.756 20.161,25 19.757,25 L17,25 C15.898,25 15,25.897 15,27 C15,28.103 15.898,29 17,29 L19.757,29 C20.161,29 20.526,29.244 20.681,29.617 C20.836,29.991 20.75,30.421 20.464,30.707 L18.515,32.656 C17.735,33.436 17.735,34.706 18.515,35.485 C19.267,36.236 20.591,36.236 21.343,35.485 L23.293,33.535 C23.484,33.344 23.74,33.242 24,33.242 L24,33.242 Z" sketch:type="MSShapeGroup"/></g></g></svg>